PathFileType	4	(X/Y/Z)	TVC_39_Cal_03_0_static_RCNL2025.trc
DataRate	CameraRate	NumFrames	NumMarkers	Units	OrigDataRate	OrigDataStartFrame	OrigNumFrames
100	100	7	27	mm	100	1	292
Frame#	Time	R_Shoulder			L_Shoulder			C7			J_Notch			R_Elbow			L_Elbow			R_Wrist			L_Wrist			R_Asis			L_Asis			R_Psis			L_Psis			Sacral			Thoracic			Sternum			R_Thigh_Lateral			R_Knee_Lateral			R_Shank_Lateral			R_Ankle_Lateral			R_Heel			R_Toe			L_Thigh_Lateral			L_Knee_Lateral			L_Shank_Lateral			L_Ankle_Lateral			L_Heel			L_Toe		
		X1	Y1	Z1	X2	Y2	Z2	X3	Y3	Z3	X4	Y4	Z4	X5	Y5	Z5	X6	Y6	Z6	X7	Y7	Z7	X8	Y8	Z8	X9	Y9	Z9	X10	Y10	Z10	X11	Y11	Z11	X12	Y12	Z12	X13	Y13	Z13	X14	Y14	Z14	X15	Y15	Z15	X16	Y16	Z16	X17	Y17	Z17	X18	Y18	Z18	X19	Y19	Z19	X20	Y20	Z20	X21	Y21	Z21	X22	Y22	Z22	X23	Y23	Z23	X24	Y24	Z24	X25	Y25	Z25	X26	Y26	Z26	X27	Y27	Z27
1	0.00000000	-197.064667	1477.770020	5.467870	-169.469711	1472.463623	-379.330048	-230.402573	1553.641357	-194.223068	-91.749840	1421.276367	-188.536224	-159.969589	1144.176025	89.500443	-178.867737	1159.061646	-488.858429	-96.723431	905.647766	16.890974	-149.898232	900.123383	-501.253632	-162.076370	941.025940	-32.146851	-122.953651	941.649292	-324.767548	-348.037628	986.397583	-144.836700	-333.512299	981.419434	-251.777588	-340.774963	983.908508	-198.307144	-333.458679	1226.405029	-203.408737	-54.670399	1260.793335	-169.493759	-224.505630	746.942810	41.937744	-218.615112	466.801971	-16.405622	-266.906158	304.221741	35.043785	-270.692200	77.772011	-58.491840	-311.678650	60.337719	-112.373932	-123.771400	46.868412	-49.483791	-199.864563	698.960327	-408.984558	-229.390091	473.816223	-348.261414	-246.916748	342.329346	-389.439819	-261.303955	75.855064	-299.401886	-298.971954	57.895466	-238.535751	-117.136467	43.340759	-319.515442
2	0.01000000	-196.991516	1477.909790	5.596749	-169.436325	1472.521729	-379.357452	-230.257629	1553.658691	-194.178909	-91.655655	1421.256470	-188.436615	-165.958359	1141.480957	89.061760	-179.043076	1158.985962	-488.749268	-96.461723	905.679810	17.036600	-150.237503	899.981201	-500.903397	-161.635910	941.167297	-32.219532	-122.832199	941.675598	-324.503723	-347.613403	986.215088	-145.126358	-333.461823	981.453918	-251.693604	-340.537613	983.834503	-198.409981	-333.265686	1226.405762	-203.286682	-54.463787	1260.775146	-169.584320	-224.331711	746.823425	41.937538	-218.621948	466.763306	-16.386614	-266.921051	304.104614	34.959156	-270.620880	77.759850	-58.388943	-311.608826	60.363003	-112.434258	-123.723572	46.892998	-49.443638	-199.678497	699.546021	-408.740051	-229.319702	473.890564	-348.288330	-246.912155	342.349670	-389.365173	-261.348022	75.802902	-299.217163	-299.010956	57.897495	-238.510895	-117.186127	43.455433	-319.570587
3	0.02000000	-196.931412	1478.005249	5.661846	-169.403641	1472.481689	-379.377319	-229.980713	1553.692627	-194.127716	-91.641525	1421.266357	-188.413300	-166.250366	1141.592773	89.270927	-179.212418	1158.871582	-488.668274	-96.232918	905.782104	17.204736	-150.080620	899.667023	-501.058105	-161.487000	941.150635	-32.218266	-122.764084	941.652710	-324.354980	-347.442810	986.163574	-145.118149	-333.441345	981.506714	-251.555511	-340.442078	983.835144	-198.336830	-333.207733	1226.428223	-203.179031	-54.387920	1260.842529	-169.547745	-224.320038	746.762329	42.001560	-218.685257	466.795471	-16.305819	-266.969666	303.995361	34.909161	-270.605652	77.836235	-58.353901	-311.673706	60.358597	-112.391884	-123.720535	46.894180	-49.442265	-199.803680	699.080139	-408.858398	-229.276016	473.950104	-348.070862	-246.751175	342.445221	-389.252319	-261.290253	75.905426	-299.430847	-299.027283	57.940681	-238.489273	-117.236717	43.218174	-319.559662
4	0.03000000	-196.820572	1478.068604	5.661863	-169.348419	1472.398804	-379.419006	-229.806534	1553.634644	-194.037720	-91.473404	1421.265137	-188.484177	-165.353592	1141.698730	89.256516	-179.370102	1158.765869	-488.477386	-95.831104	905.849304	17.480246	-150.803795	899.696289	-500.388412	-161.509430	941.099182	-32.060810	-122.682877	941.691589	-324.236115	-347.497040	986.188049	-144.963577	-333.231445	981.455261	-251.444244	-340.364243	983.821655	-198.203911	-333.177094	1226.461304	-203.091293	-54.321209	1260.832642	-169.494675	-224.240494	746.809082	42.084480	-218.638809	466.864777	-16.319693	-267.109436	303.912170	34.940762	-270.664612	77.908836	-58.324478	-311.688660	60.372749	-112.381523	-123.686432	46.925465	-49.458847	-199.737411	699.022217	-408.664856	-229.231827	473.920288	-348.070251	-246.805725	342.421448	-389.325867	-261.310211	75.968628	-299.413635	-299.003815	57.930721	-238.497025	-117.177094	43.426929	-319.543396
5	0.04000000	-196.642044	1478.012207	5.787992	-169.353180	1472.264893	-379.311737	-229.684601	1553.654053	-194.012772	-91.256371	1421.258667	-188.539459	-164.831543	1141.751587	89.434776	-179.531830	1158.718262	-488.231842	-95.546368	905.890198	17.722243	-151.191261	899.555267	-500.065536	-161.587723	941.013733	-31.788588	-122.745522	941.646790	-324.205017	-347.587463	986.334534	-144.788605	-333.178375	981.524170	-251.347824	-340.382919	983.929352	-198.068214	-332.999329	1226.471558	-202.968109	-54.208298	1260.799438	-169.430817	-224.233612	746.716858	42.099987	-218.648956	466.859467	-16.262566	-267.022766	304.069611	34.988953	-270.758453	77.886009	-58.287769	-311.712280	60.400742	-112.353142	-123.676498	46.922962	-49.458797	-199.532654	699.528870	-408.414062	-229.228409	473.929779	-347.988495	-246.799194	342.629944	-389.421875	-261.318481	75.957039	-299.396912	-298.992432	58.026020	-238.468597	-117.120789	43.537098	-319.619019
6	0.05000000	-196.550705	1478.126221	5.737150	-169.290894	1472.254395	-379.313141	-229.677643	1553.667847	-194.017975	-91.135628	1421.240723	-188.546722	-164.617310	1141.816406	89.523796	-179.752090	1158.497681	-488.073242	-95.344177	905.915344	17.943407	-151.389603	899.342102	-499.846680	-161.418320	941.086304	-31.920761	-122.805946	941.848389	-324.241272	-347.329620	986.335632	-144.768036	-333.138672	981.582153	-251.233307	-340.234146	983.958893	-198.000671	-332.911133	1226.467651	-202.917236	-54.010963	1260.869629	-169.501251	-224.124359	746.684387	42.117195	-218.737854	466.806152	-16.253382	-267.194244	303.860077	35.077511	-270.597076	77.852135	-58.392532	-311.721191	60.392570	-112.413574	-123.722427	46.873543	-49.440533	-199.490433	699.082458	-408.470184	-229.235657	473.942230	-347.965179	-246.749298	342.724304	-389.460876	-261.306000	75.967560	-299.444397	-298.992645	57.940739	-238.507111	-117.000435	43.492104	-319.532349
7	0.06000000	-196.406601	1478.141724	5.899141	-169.272858	1472.216553	-379.327850	-229.558365	1553.701660	-193.999619	-90.930382	1421.255737	-188.552124	-164.316315	1142.059204	89.613220	-179.933426	1158.408447	-487.859894	-95.281025	905.663177	18.298874	-151.699013	899.202728	-499.549347	-161.352982	941.115967	-31.742558	-122.712372	941.612366	-323.983612	-347.477997	986.376282	-144.353256	-333.059479	981.510803	-251.197235	-340.268738	983.943542	-197.775246	-332.850800	1226.455200	-202.833954	-53.847660	1260.846924	-169.466766	-224.121918	746.635193	42.242188	-218.720245	466.767761	-16.184858	-267.177643	304.100891	35.119076	-270.720978	77.854225	-58.340042	-311.680054	60.357655	-112.405205	-123.726692	46.913593	-49.495354	-199.401047	699.374573	-408.336426	-229.258850	473.898651	-347.903656	-246.826187	342.500641	-389.226807	-261.261871	75.937195	-299.411530	-298.977570	58.012562	-238.493988	-117.121361	43.532597	-319.650543
